HIERARCHY
ROOT Hips
{
	OFFSET 0.000000 0.000000 0.000000
	CHANNELS 6 Xposition Yposition Zposition Zrotation Xrotation Yrotation
	JOINT Spine
	{
		OFFSET 0.000000 -0.744707 -0.000000
		CHANNELS 6 Xposition Yposition Zposition Zrotation Xrotation Yrotation
		JOINT Spine1
		{
			OFFSET 0.000000 -2.032240 -0.000000
			CHANNELS 6 Xposition Yposition Zposition Zrotation Xrotation Yrotation
			JOINT Neck
			{
				OFFSET 0.000000 -2.213880 -0.000000
				CHANNELS 6 Xposition Yposition Zposition Zrotation Xrotation Yrotation
				JOINT Head
				{
					OFFSET 0.000000 -1.407680 -0.181636
					CHANNELS 6 Xposition Yposition Zposition Zrotation Xrotation Yrotation
					End Site
					{
						OFFSET 0.000000 -1.816356 -0.000000
					}
				}
			}
			JOINT LeftShoulder
			{
				OFFSET 0.365767 -1.787590 0.048012
				CHANNELS 6 Xposition Yposition Zposition Zrotation Xrotation Yrotation
				JOINT LeftArm
				{
					OFFSET 1.305160 0.000000 0.000000
					CHANNELS 6 Xposition Yposition Zposition Zrotation Xrotation Yrotation
					JOINT LeftForeArm
					{
						OFFSET 2.559210 0.000000 0.000000
						CHANNELS 6 Xposition Yposition Zposition Zrotation Xrotation Yrotation
						JOINT LeftHand
						{
							OFFSET 2.378450 0.000000 0.000000
							CHANNELS 6 Xposition Yposition Zposition Zrotation Xrotation Yrotation
							End Site
							{
								OFFSET 1.362267 0.000000 0.000000
							}
						}
					}
				}
			}
			JOINT RightShoulder
			{
				OFFSET -0.360721 -1.787590 0.048012
				CHANNELS 6 Xposition Yposition Zposition Zrotation Xrotation Yrotation
				JOINT RightArm
				{
					OFFSET -1.305160 0.000000 0.000000
					CHANNELS 6 Xposition Yposition Zposition Zrotation Xrotation Yrotation
					JOINT RightForeArm
					{
						OFFSET -2.559210 0.000000 0.000000
						CHANNELS 6 Xposition Yposition Zposition Zrotation Xrotation Yrotation
						JOINT RightHand
						{
							OFFSET -2.378450 0.000000 0.000000
							CHANNELS 6 Xposition Yposition Zposition Zrotation Xrotation Yrotation
							End Site
							{
								OFFSET -1.362267 0.000000 0.000000
							}
						}
					}
				}
			}
		}
	}
	JOINT LeftUpLeg
	{
		OFFSET 0.908180 0.000000 0.000000
		CHANNELS 6 Xposition Yposition Zposition Zrotation Xrotation Yrotation
		JOINT LeftLeg
		{
			OFFSET 0.000000 3.819490 0.000002
			CHANNELS 6 Xposition Yposition Zposition Zrotation Xrotation Yrotation
			JOINT LeftFoot
			{
				OFFSET 0.000000 4.004300 0.000002
				CHANNELS 6 Xposition Yposition Zposition Zrotation Xrotation Yrotation
				JOINT LeftToeBase
				{
					OFFSET 0.000000 0.590317 -1.362270
					CHANNELS 6 Xposition Yposition Zposition Zrotation Xrotation Yrotation
					End Site
					{
						OFFSET 0.000000 0.000000 -0.363271
					}
				}
			}
		}
	}
	JOINT RightUpLeg
	{
		OFFSET -0.908180 0.000000 0.000000
		CHANNELS 6 Xposition Yposition Zposition Zrotation Xrotation Yrotation
		JOINT RightLeg
		{
			OFFSET 0.000000 3.819490 0.000002
			CHANNELS 6 Xposition Yposition Zposition Zrotation Xrotation Yrotation
			JOINT RightFoot
			{
				OFFSET 0.000000 4.004300 0.000002
				CHANNELS 6 Xposition Yposition Zposition Zrotation Xrotation Yrotation
				JOINT RightToeBase
				{
					OFFSET 0.000000 0.590317 -1.362270
					CHANNELS 6 Xposition Yposition Zposition Zrotation Xrotation Yrotation
					End Site
					{
						OFFSET 0.000000 0.000000 -0.363271
					}
				}
			}
		}
	}
}
MOTION
Frames: 6
Frame Time: 0.016667
-1.172897 -7.610187 -1.838406 -1.351877 9.127268 0.400950 -0.000000 -0.744707 0.000000 4.747569 -17.619812 3.571486 0.000000 -2.032241 -0.000002 -12.318022 5.845723 1.584980 -0.000000 -2.213882 -0.000001 -0.789880 12.502157 -3.197105 -0.000000 -1.407679 -0.181636 7.503106 1.172434 -4.538615 0.365767 -1.787590 0.048012 -21.344954 -8.119338 -2.807390 1.305162 -0.000003 -0.000000 3.749342 -9.318987 12.912188 2.559211 0.000000 0.000000 2.171797 -5.884603 -0.441120 2.378450 0.000000 -0.000001 3.935643 -6.547187 -19.463350 -0.360721 -1.787590 0.048012 16.816498 1.089721 5.479450 -1.305160 -0.000002 0.000000 0.096234 37.556902 -26.584821 -2.559210 0.000001 -0.000001 33.883718 -27.295096 -74.724872 -2.378451 -0.000000 0.000000 47.413821 3.843774 11.508359 0.908180 0.000000 0.000000 -17.985331 -17.742248 -15.967637 0.000000 3.819491 0.000002 2.108363 22.635991 -4.510751 -0.000000 4.004301 0.000002 8.602442 -1.914898 -17.967701 -0.000000 0.590317 -1.362270 -0.000002 0.000003 0.000003 -0.908180 0.000000 0.000000 22.827682 -22.234006 5.495172 0.000001 3.819490 0.000002 -12.013111 30.345824 -13.423730 -0.000000 4.004300 0.000002 -4.670017 -15.762738 48.048561 -0.000000 0.590316 -1.362270 0.000003 0.000004 0.000006 
-1.173770 -7.610147 -1.838429 -1.344331 9.126591 0.408119 -0.000000 -0.744705 0.000000 4.740688 -17.627808 3.565409 0.000000 -2.032238 -0.000001 -12.321248 5.850675 1.584000 -0.000000 -2.213880 -0.000000 -0.805402 12.519045 -3.247305 0.000000 -1.407683 -0.181637 7.510104 1.115574 -4.591646 0.365767 -1.787588 0.048011 -21.334542 -8.126929 -2.801323 1.305162 0.000000 -0.000000 3.745340 -9.326390 12.906356 2.559211 -0.000000 0.000001 2.185634 -5.889276 -0.446007 2.378451 0.000001 -0.000000 3.885161 -6.543554 -19.476877 -0.360721 -1.787588 0.048011 16.821665 1.087865 5.471946 -1.305161 0.000002 -0.000000 0.118862 37.618254 -26.574724 -2.559211 0.000000 -0.000002 33.934494 -27.357638 -74.684061 -2.378449 0.000001 -0.000000 47.421699 3.790086 11.489602 0.908180 0.000001 0.000000 -17.995016 -17.733632 -15.945671 0.000000 3.819489 0.000002 2.111127 22.626928 -4.534390 0.000000 4.004301 0.000000 8.648532 -1.919033 -17.975104 -0.000000 0.590317 -1.362270 0.000002 -0.000002 0.000001 -0.908180 0.000001 0.000000 22.810190 -22.233391 5.497716 0.000001 3.819491 0.000002 -12.007438 30.339171 -13.410875 -0.000000 4.004300 0.000001 -4.663913 -15.758112 48.025819 -0.000000 0.590316 -1.362270 -0.000000 0.000004 0.000003 
-1.174628 -7.609983 -1.838607 -1.344085 9.119469 0.407935 0.000000 -0.744707 0.000000 4.742432 -17.623377 3.565518 -0.000000 -2.032241 -0.000000 -12.324189 5.847204 1.583805 -0.000000 -2.213879 -0.000000 -0.814072 12.516476 -3.306463 0.000000 -1.407683 -0.181637 7.495103 1.089736 -4.651043 0.365767 -1.787590 0.048012 -21.319911 -8.134655 -2.798119 1.305162 -0.000003 -0.000000 3.732701 -9.299863 12.900084 2.559211 -0.000003 0.000001 2.192227 -5.896884 -0.445749 2.378449 0.000001 0.000000 3.881970 -6.550769 -19.482018 -0.360722 -1.787589 0.048012 16.825601 1.101276 5.477773 -1.305161 -0.000002 -0.000000 0.134760 37.613176 -26.576580 -2.559209 0.000001 -0.000001 33.931628 -27.374620 -74.691786 -2.378449 0.000000 -0.000000 47.427775 3.791171 11.530154 0.908180 0.000000 0.000000 -17.995288 -17.724078 -15.921425 0.000000 3.819490 0.000002 2.109293 22.619235 -4.518218 0.000000 4.004299 0.000001 8.611591 -1.913335 -18.005997 0.000000 0.590317 -1.362270 -0.000000 -0.000001 0.000005 -0.908180 0.000000 0.000000 22.805657 -22.226948 5.518684 0.000000 3.819490 0.000002 -11.996205 30.349420 -13.455413 -0.000000 4.004299 0.000001 -4.630073 -15.753626 48.037953 -0.000000 0.590317 -1.362270 0.000001 0.000002 0.000005 
-1.175332 -7.609899 -1.838417 -1.334997 9.118959 0.417287 0.000000 -0.744708 -0.000000 4.728496 -17.628232 3.556998 0.000000 -2.032239 -0.000000 -12.323504 5.851979 1.582187 -0.000000 -2.213878 0.000000 -0.821520 12.517612 -3.357809 -0.000000 -1.407678 -0.181636 7.485259 1.056311 -4.702334 0.365767 -1.787590 0.048012 -21.323991 -8.139742 -2.805930 1.305159 0.000002 0.000000 3.745844 -9.271025 12.901373 2.559212 -0.000001 0.000000 2.187107 -5.906453 -0.441446 2.378449 0.000001 -0.000000 3.884642 -6.561264 -19.493158 -0.360721 -1.787588 0.048012 16.840637 1.095970 5.473372 -1.305160 0.000001 -0.000001 0.114794 37.599754 -26.555777 -2.559209 -0.000001 0.000000 33.916933 -27.365168 -74.715528 -2.378449 0.000002 -0.000001 47.430258 3.806935 11.543200 0.908180 -0.000000 0.000000 -18.001773 -17.716898 -15.882043 -0.000000 3.819490 0.000001 2.110483 22.605734 -4.559644 -0.000000 4.004301 0.000001 8.616588 -1.914878 -18.010615 0.000000 0.590317 -1.362270 -0.000001 0.000001 -0.000003 -0.908180 -0.000001 -0.000000 22.790232 -22.243450 5.515755 0.000001 3.819491 0.000001 -11.999133 30.370825 -13.480301 -0.000000 4.004300 0.000001 -4.633664 -15.761604 48.059711 0.000001 0.590317 -1.362269 -0.000002 -0.000000 0.000004 
-1.176150 -7.609684 -1.838443 -1.338456 9.110983 0.416667 0.000000 -0.744707 -0.000000 4.734786 -17.626852 3.555525 0.000000 -2.032238 -0.000000 -12.323959 5.855385 1.581819 0.000000 -2.213880 -0.000000 -0.836112 12.531398 -3.398091 0.000000 -1.407678 -0.181636 7.483962 1.008187 -4.744321 0.365767 -1.787588 0.048012 -21.318012 -8.131732 -2.809443 1.305162 -0.000002 -0.000000 3.746559 -9.288928 12.915045 2.559211 -0.000001 0.000000 2.189961 -5.897388 -0.453112 2.378447 0.000001 -0.000000 3.879311 -6.550781 -19.484347 -0.360721 -1.787589 0.048012 16.850919 1.091834 5.467321 -1.305160 -0.000001 -0.000001 0.080747 37.577273 -26.517528 -2.559210 0.000002 0.000000 33.912483 -27.347190 -74.741879 -2.378449 0.000002 -0.000000 47.384345 3.832767 11.546813 0.908180 0.000001 -0.000000 -17.980330 -17.713995 -15.935832 0.000000 3.819491 0.000002 2.039329 22.603618 -4.548445 0.000000 4.004300 0.000001 8.641316 -1.900576 -17.947227 0.000000 0.590316 -1.362270 0.000001 0.000002 -0.000000 -0.908180 0.000000 0.000000 22.794373 -22.245532 5.533426 0.000000 3.819490 0.000001 -12.003453 30.393560 -13.475132 -0.000001 4.004301 0.000001 -4.630980 -15.773550 48.044684 -0.000000 0.590316 -1.362270 0.000000 0.000000 0.000002 
-1.176778 -7.609550 -1.838490 -1.336220 9.103636 0.422151 -0.000000 -0.744707 -0.000000 4.730843 -17.628057 3.549517 0.000000 -2.032238 -0.000000 -12.321159 5.862946 1.580690 -0.000000 -2.213882 0.000000 -0.859167 12.522614 -3.429174 0.000000 -1.407681 -0.181636 7.492926 0.998299 -4.782519 0.365767 -1.787593 0.048012 -21.330093 -8.145481 -2.812468 1.305161 0.000000 -0.000000 3.766952 -9.297875 12.916392 2.559211 -0.000000 0.000000 2.193153 -5.871747 -0.458343 2.378452 0.000001 0.000000 3.891180 -6.526881 -19.478661 -0.360721 -1.787591 0.048012 16.856704 1.087327 5.459264 -1.305160 -0.000003 -0.000001 0.073673 37.594304 -26.497584 -2.559209 -0.000002 -0.000000 33.924918 -27.366241 -74.734106 -2.378449 -0.000001 -0.000001 47.415460 3.836504 11.579581 0.908180 -0.000001 -0.000000 -17.984344 -17.701977 -15.947587 -0.000000 3.819490 0.000002 2.030064 22.603328 -4.484651 0.000000 4.004301 0.000001 8.687040 -1.920521 -18.001184 -0.000000 0.590316 -1.362270 -0.000000 0.000006 0.000005 -0.908180 -0.000001 -0.000000 22.793537 -22.237382 5.537350 0.000000 3.819490 0.000002 -12.012183 30.391743 -13.512759 -0.000000 4.004300 0.000001 -4.595802 -15.765892 48.064349 -0.000000 0.590317 -1.362270 -0.000001 0.000003 0.000003 
